<svg width="12" height="12" viewBox="0 0 12 12" fill="none" xmlns="http://www.w3.org/2000/svg">
<path d="M6 12C4.98182 12 4.04546 11.7682 3.19091 11.3045C2.33636 10.8409 1.63637 10.2227 1.09091 9.45V10.3636C1.09091 10.5182 1.03855 10.6478 0.93382 10.7525C0.829092 10.8573 0.699638 10.9095 0.545456 10.9091C0.390911 10.9091 0.261275 10.8567 0.156547 10.752C0.05182 10.6473 -0.000361749 10.5178 1.88739e-06 10.3636V8.18182C1.88739e-06 8.02727 0.0523655 7.89764 0.157093 7.79291C0.26182 7.68818 0.391275 7.636 0.545456 7.63636H2.72727C2.88182 7.63636 3.01146 7.68873 3.11618 7.79345C3.22091 7.89818 3.27309 8.02764 3.27273 8.18182C3.27273 8.33636 3.22036 8.466 3.11564 8.57073C3.01091 8.67545 2.88146 8.72764 2.72727 8.72727H1.92273C2.35909 9.38182 2.93418 9.90909 3.648 10.3091C4.36182 10.7091 5.14582 10.9091 6 10.9091C7.28182 10.9091 8.38418 10.4818 9.30709 9.62727C10.23 8.77273 10.7549 7.72273 10.8818 6.47727C10.9 6.33182 10.9636 6.21582 11.0727 6.12927C11.1818 6.04273 11.3091 5.99964 11.4545 6C11.6091 6 11.7409 6.04782 11.85 6.14345C11.9591 6.23909 12.0045 6.35491 11.9864 6.49091C11.9227 7.26364 11.7227 7.984 11.3864 8.652C11.05 9.32 10.6136 9.90182 10.0773 10.3975C9.54091 10.8931 8.92491 11.284 8.22927 11.5702C7.53364 11.8564 6.79055 11.9996 6 12ZM6 1.09091C4.71818 1.09091 3.616 1.51818 2.69346 2.37273C1.77091 3.22727 1.24582 4.27727 1.11818 5.52273C1.1 5.66818 1.03637 5.78418 0.927274 5.87073C0.818183 5.95727 0.690911 6.00036 0.545456 6C0.390911 6 0.259093 5.95218 0.150002 5.85655C0.0409109 5.76091 -0.00454358 5.64509 0.0136382 5.50909C0.0772746 4.73636 0.277275 4.016 0.613638 3.348C0.950002 2.68 1.38637 2.09818 1.92273 1.60255C2.45909 1.10691 3.07509 0.716 3.77073 0.429818C4.46636 0.143636 5.20946 0.000363636 6 0C7.01818 0 7.95454 0.231818 8.80909 0.695455C9.66364 1.15909 10.3636 1.77727 10.9091 2.55V1.63636C10.9091 1.48182 10.9615 1.35236 11.0662 1.248C11.1709 1.14364 11.3004 1.09127 11.4545 1.09091C11.6091 1.09091 11.7387 1.14327 11.8435 1.248C11.9482 1.35273 12.0004 1.48218 12 1.63636V3.81818C12 3.97273 11.9476 4.10236 11.8429 4.20709C11.7382 4.31182 11.6087 4.364 11.4545 4.36364H9.27273C9.11818 4.36364 8.98855 4.31127 8.88382 4.20655C8.77909 4.10182 8.72691 3.97236 8.72727 3.81818C8.72727 3.66364 8.77964 3.534 8.88436 3.42927C8.98909 3.32455 9.11854 3.27236 9.27273 3.27273H10.0773C9.64091 2.61818 9.06582 2.09091 8.352 1.69091C7.63818 1.29091 6.85418 1.09091 6 1.09091Z" fill="white"/>
<path d="M6 12C4.98182 12 4.04546 11.7682 3.19091 11.3045C2.33636 10.8409 1.63637 10.2227 1.09091 9.45V10.3636C1.09091 10.5182 1.03855 10.6478 0.93382 10.7525C0.829092 10.8573 0.699638 10.9095 0.545456 10.9091C0.390911 10.9091 0.261275 10.8567 0.156547 10.752C0.05182 10.6473 -0.000361749 10.5178 1.88739e-06 10.3636V8.18182C1.88739e-06 8.02727 0.0523655 7.89764 0.157093 7.79291C0.26182 7.68818 0.391275 7.636 0.545456 7.63636H2.72727C2.88182 7.63636 3.01146 7.68873 3.11618 7.79345C3.22091 7.89818 3.27309 8.02764 3.27273 8.18182C3.27273 8.33636 3.22036 8.466 3.11564 8.57073C3.01091 8.67545 2.88146 8.72764 2.72727 8.72727H1.92273C2.35909 9.38182 2.93418 9.90909 3.648 10.3091C4.36182 10.7091 5.14582 10.9091 6 10.9091C7.28182 10.9091 8.38418 10.4818 9.30709 9.62727C10.23 8.77273 10.7549 7.72273 10.8818 6.47727C10.9 6.33182 10.9636 6.21582 11.0727 6.12927C11.1818 6.04273 11.3091 5.99964 11.4545 6C11.6091 6 11.7409 6.04782 11.85 6.14345C11.9591 6.23909 12.0045 6.35491 11.9864 6.49091C11.9227 7.26364 11.7227 7.984 11.3864 8.652C11.05 9.32 10.6136 9.90182 10.0773 10.3975C9.54091 10.8931 8.92491 11.284 8.22927 11.5702C7.53364 11.8564 6.79055 11.9996 6 12ZM6 1.09091C4.71818 1.09091 3.616 1.51818 2.69346 2.37273C1.77091 3.22727 1.24582 4.27727 1.11818 5.52273C1.1 5.66818 1.03637 5.78418 0.927274 5.87073C0.818183 5.95727 0.690911 6.00036 0.545456 6C0.390911 6 0.259093 5.95218 0.150002 5.85655C0.0409109 5.76091 -0.00454358 5.64509 0.0136382 5.50909C0.0772746 4.73636 0.277275 4.016 0.613638 3.348C0.950002 2.68 1.38637 2.09818 1.92273 1.60255C2.45909 1.10691 3.07509 0.716 3.77073 0.429818C4.46636 0.143636 5.20946 0.000363636 6 0C7.01818 0 7.95454 0.231818 8.80909 0.695455C9.66364 1.15909 10.3636 1.77727 10.9091 2.55V1.63636C10.9091 1.48182 10.9615 1.35236 11.0662 1.248C11.1709 1.14364 11.3004 1.09127 11.4545 1.09091C11.6091 1.09091 11.7387 1.14327 11.8435 1.248C11.9482 1.35273 12.0004 1.48218 12 1.63636V3.81818C12 3.97273 11.9476 4.10236 11.8429 4.20709C11.7382 4.31182 11.6087 4.364 11.4545 4.36364H9.27273C9.11818 4.36364 8.98855 4.31127 8.88382 4.20655C8.77909 4.10182 8.72691 3.97236 8.72727 3.81818C8.72727 3.66364 8.77964 3.534 8.88436 3.42927C8.98909 3.32455 9.11854 3.27236 9.27273 3.27273H10.0773C9.64091 2.61818 9.06582 2.09091 8.352 1.69091C7.63818 1.29091 6.85418 1.09091 6 1.09091Z" fill="#141769" fill-opacity="0.5"/>
</svg>
