<svg width="28" height="28" viewBox="0 0 28 28" fill="none" xmlns="http://www.w3.org/2000/svg">
<path d="M14 28C21.732 28 28 21.732 28 14C28 6.26801 21.732 0 14 0C6.26801 0 0 6.26801 0 14C0 21.732 6.26801 28 14 28Z" fill="#1652F0"/>
<path fill-rule="evenodd" clip-rule="evenodd" d="M3.81836 14.0002C3.81836 19.6235 8.37691 24.182 14.0002 24.182C19.6235 24.182 24.182 19.6235 24.182 14.0002C24.182 8.37691 19.6235 3.81836 14.0002 3.81836C8.37691 3.81836 3.81836 8.37691 3.81836 14.0002ZM12.1194 10.72C11.3462 10.72 10.7194 11.3467 10.7194 12.12V15.8815C10.7194 16.6548 11.3462 17.2815 12.1194 17.2815H15.881C16.6542 17.2815 17.281 16.6548 17.281 15.8815V12.12C17.281 11.3467 16.6542 10.72 15.881 10.72H12.1194Z" fill="white"/>
</svg>
