<svg width="16" height="16" viewBox="0 0 16 16" fill="none" xmlns="http://www.w3.org/2000/svg">
<path fill-rule="evenodd" clip-rule="evenodd" d="M6.66667 6.16667C6.39052 6.16667 6.16667 6.39052 6.16667 6.66667V13.3333C6.16667 13.6095 6.39052 13.8333 6.66667 13.8333H13.3333C13.6095 13.8333 13.8333 13.6095 13.8333 13.3333V6.66667C13.8333 6.39052 13.6095 6.16667 13.3333 6.16667H6.66667ZM4.5 6.66667C4.5 5.47005 5.47005 4.5 6.66667 4.5H13.3333C14.5299 4.5 15.5 5.47005 15.5 6.66667V13.3333C15.5 14.5299 14.5299 15.5 13.3333 15.5H6.66667C5.47005 15.5 4.5 14.5299 4.5 13.3333V6.66667Z" fill="white"/>
<path fill-rule="evenodd" clip-rule="evenodd" d="M6.66667 6.16667C6.39052 6.16667 6.16667 6.39052 6.16667 6.66667V13.3333C6.16667 13.6095 6.39052 13.8333 6.66667 13.8333H13.3333C13.6095 13.8333 13.8333 13.6095 13.8333 13.3333V6.66667C13.8333 6.39052 13.6095 6.16667 13.3333 6.16667H6.66667ZM4.5 6.66667C4.5 5.47005 5.47005 4.5 6.66667 4.5H13.3333C14.5299 4.5 15.5 5.47005 15.5 6.66667V13.3333C15.5 14.5299 14.5299 15.5 13.3333 15.5H6.66667C5.47005 15.5 4.5 14.5299 4.5 13.3333V6.66667Z" fill="#141769" fill-opacity="0.3"/>
<path fill-rule="evenodd" clip-rule="evenodd" d="M2.66667 2.16667C2.39357 2.16667 2.16667 2.39357 2.16667 2.66667V9.33333C2.16667 9.60643 2.39357 9.83333 2.66667 9.83333C3.1269 9.83333 3.5 10.2064 3.5 10.6667C3.5 11.1269 3.1269 11.5 2.66667 11.5C1.4731 11.5 0.5 10.5269 0.5 9.33333V2.66667C0.5 1.4731 1.4731 0.5 2.66667 0.5H9.33333C10.5269 0.5 11.5 1.4731 11.5 2.66667C11.5 3.1269 11.1269 3.5 10.6667 3.5C10.2064 3.5 9.83333 3.1269 9.83333 2.66667C9.83333 2.39357 9.60643 2.16667 9.33333 2.16667H2.66667Z" fill="white"/>
<path fill-rule="evenodd" clip-rule="evenodd" d="M2.66667 2.16667C2.39357 2.16667 2.16667 2.39357 2.16667 2.66667V9.33333C2.16667 9.60643 2.39357 9.83333 2.66667 9.83333C3.1269 9.83333 3.5 10.2064 3.5 10.6667C3.5 11.1269 3.1269 11.5 2.66667 11.5C1.4731 11.5 0.5 10.5269 0.5 9.33333V2.66667C0.5 1.4731 1.4731 0.5 2.66667 0.5H9.33333C10.5269 0.5 11.5 1.4731 11.5 2.66667C11.5 3.1269 11.1269 3.5 10.6667 3.5C10.2064 3.5 9.83333 3.1269 9.83333 2.66667C9.83333 2.39357 9.60643 2.16667 9.33333 2.16667H2.66667Z" fill="#141769" fill-opacity="0.3"/>
</svg>
