<svg width="14" height="14" viewBox="0 0 14 14" fill="none" xmlns="http://www.w3.org/2000/svg">
<path d="M12.7349 1.26777C12.3528 0.885718 11.7356 0.885718 11.3536 1.26777L6.56319 6.04837L1.7728 1.25798C1.39074 0.875922 0.773578 0.875922 0.391522 1.25798C0.0094666 1.64003 0.0094666 2.2572 0.391522 2.63926L5.18191 7.42964L0.391522 12.22C0.0094666 12.6021 0.0094666 13.2193 0.391522 13.6013C0.773578 13.9834 1.39074 13.9834 1.7728 13.6013L6.56319 8.81092L11.3536 13.6013C11.7356 13.9834 12.3528 13.9834 12.7349 13.6013C13.1169 13.2193 13.1169 12.6021 12.7349 12.22L7.94447 7.42964L12.7349 2.63926C13.1071 2.267 13.1071 1.64003 12.7349 1.26777Z" fill="#141769" fill-opacity="0.2"/>
</svg>
