<svg width="14" height="14" viewBox="0 0 14 14" fill="none" xmlns="http://www.w3.org/2000/svg">
<path d="M0.333496 2.51332L1.18683 1.66666L12.3335 12.8133L11.4868 13.6667L8.26683 10.4467L6.52683 12.1867C5.90148 12.8111 5.05388 13.1618 4.17016 13.1618C3.28644 13.1618 2.43885 12.8111 1.8135 12.1867C1.18908 11.5613 0.838368 10.7137 0.838368 9.82999C0.838368 8.94627 1.18908 8.09868 1.8135 7.47332L2.80683 6.47999C2.80016 7.02666 2.88683 7.57332 3.0735 8.09999L2.76016 8.41332C2.57327 8.5982 2.4249 8.8183 2.32364 9.0609C2.22238 9.3035 2.17024 9.56377 2.17024 9.82666C2.17024 10.0895 2.22238 10.3498 2.32364 10.5924C2.4249 10.835 2.57327 11.0551 2.76016 11.24C2.94504 11.4269 3.16514 11.5753 3.40774 11.6765C3.65034 11.7778 3.91061 11.8299 4.1735 11.8299C4.43638 11.8299 4.69665 11.7778 4.93925 11.6765C5.18185 11.5753 5.40195 11.4269 5.58683 11.24L7.3335 9.50666L6.2535 8.43332C6.24683 8.59332 6.18016 8.75999 6.06016 8.88666C5.80016 9.14666 5.3735 9.14666 5.1135 8.88666C4.78033 8.55408 4.52181 8.15437 4.35513 7.71412C4.18845 7.27386 4.11744 6.80316 4.14683 6.33332L0.333496 2.51332ZM7.4735 1.81332C8.09885 1.18891 8.94645 0.838196 9.83016 0.838196C10.7139 0.838196 11.5615 1.18891 12.1868 1.81332C12.8112 2.43868 13.162 3.28627 13.162 4.16999C13.162 5.05371 12.8112 5.90131 12.1868 6.52666L11.1935 7.51999C11.2002 6.97332 11.1135 6.42666 10.9268 5.90666L11.2402 5.58666C11.4271 5.40178 11.5754 5.18168 11.6767 4.93908C11.7779 4.69648 11.8301 4.43621 11.8301 4.17332C11.8301 3.91044 11.7779 3.65017 11.6767 3.40757C11.5754 3.16497 11.4271 2.94487 11.2402 2.75999C11.0553 2.5731 10.8352 2.42473 10.5926 2.32347C10.35 2.22221 10.0897 2.17007 9.82683 2.17007C9.56395 2.17007 9.30367 2.22221 9.06108 2.32347C8.81848 2.42473 8.59837 2.5731 8.4135 2.75999L6.1935 4.97999L5.2535 4.03332L7.4735 1.81332ZM7.94016 5.11332C8.20016 4.85332 8.62683 4.85332 8.88683 5.11332C9.32026 5.54598 9.62609 6.0897 9.77075 6.68479C9.9154 7.27988 9.89329 7.90332 9.70683 8.48666L8.52016 7.30666C8.48683 6.85332 8.2935 6.40666 7.94016 6.05999C7.87542 5.99932 7.8238 5.92601 7.78852 5.84459C7.75324 5.76318 7.73503 5.67539 7.73503 5.58666C7.73503 5.49793 7.75324 5.41014 7.78852 5.32872C7.8238 5.24731 7.87542 5.174 7.94016 5.11332Z" fill="white"/>
<path d="M0.333496 2.51332L1.18683 1.66666L12.3335 12.8133L11.4868 13.6667L8.26683 10.4467L6.52683 12.1867C5.90148 12.8111 5.05388 13.1618 4.17016 13.1618C3.28644 13.1618 2.43885 12.8111 1.8135 12.1867C1.18908 11.5613 0.838368 10.7137 0.838368 9.82999C0.838368 8.94627 1.18908 8.09868 1.8135 7.47332L2.80683 6.47999C2.80016 7.02666 2.88683 7.57332 3.0735 8.09999L2.76016 8.41332C2.57327 8.5982 2.4249 8.8183 2.32364 9.0609C2.22238 9.3035 2.17024 9.56377 2.17024 9.82666C2.17024 10.0895 2.22238 10.3498 2.32364 10.5924C2.4249 10.835 2.57327 11.0551 2.76016 11.24C2.94504 11.4269 3.16514 11.5753 3.40774 11.6765C3.65034 11.7778 3.91061 11.8299 4.1735 11.8299C4.43638 11.8299 4.69665 11.7778 4.93925 11.6765C5.18185 11.5753 5.40195 11.4269 5.58683 11.24L7.3335 9.50666L6.2535 8.43332C6.24683 8.59332 6.18016 8.75999 6.06016 8.88666C5.80016 9.14666 5.3735 9.14666 5.1135 8.88666C4.78033 8.55408 4.52181 8.15437 4.35513 7.71412C4.18845 7.27386 4.11744 6.80316 4.14683 6.33332L0.333496 2.51332ZM7.4735 1.81332C8.09885 1.18891 8.94645 0.838196 9.83016 0.838196C10.7139 0.838196 11.5615 1.18891 12.1868 1.81332C12.8112 2.43868 13.162 3.28627 13.162 4.16999C13.162 5.05371 12.8112 5.90131 12.1868 6.52666L11.1935 7.51999C11.2002 6.97332 11.1135 6.42666 10.9268 5.90666L11.2402 5.58666C11.4271 5.40178 11.5754 5.18168 11.6767 4.93908C11.7779 4.69648 11.8301 4.43621 11.8301 4.17332C11.8301 3.91044 11.7779 3.65017 11.6767 3.40757C11.5754 3.16497 11.4271 2.94487 11.2402 2.75999C11.0553 2.5731 10.8352 2.42473 10.5926 2.32347C10.35 2.22221 10.0897 2.17007 9.82683 2.17007C9.56395 2.17007 9.30367 2.22221 9.06108 2.32347C8.81848 2.42473 8.59837 2.5731 8.4135 2.75999L6.1935 4.97999L5.2535 4.03332L7.4735 1.81332ZM7.94016 5.11332C8.20016 4.85332 8.62683 4.85332 8.88683 5.11332C9.32026 5.54598 9.62609 6.0897 9.77075 6.68479C9.9154 7.27988 9.89329 7.90332 9.70683 8.48666L8.52016 7.30666C8.48683 6.85332 8.2935 6.40666 7.94016 6.05999C7.87542 5.99932 7.8238 5.92601 7.78852 5.84459C7.75324 5.76318 7.73503 5.67539 7.73503 5.58666C7.73503 5.49793 7.75324 5.41014 7.78852 5.32872C7.8238 5.24731 7.87542 5.174 7.94016 5.11332Z" fill="#141769" fill-opacity="0.5"/>
</svg>
