<svg width="36" height="37" viewBox="0 0 36 37" fill="none" xmlns="http://www.w3.org/2000/svg">
<path fill-rule="evenodd" clip-rule="evenodd" d="M11.8384 27.7645L15.3759 28.703V27.4757L15.6646 27.1869H17.686V29.6415H15.5202L12.8491 28.4864L11.8384 27.7645Z" fill="#CDBDB2"/>
<path fill-rule="evenodd" clip-rule="evenodd" d="M23.3882 27.7645L19.9229 28.703V27.4757L19.6342 27.1869H17.6128V29.6415H19.7786L22.4496 28.4864L23.3882 27.7645Z" fill="#CDBDB2"/>
<path fill-rule="evenodd" clip-rule="evenodd" d="M15.6643 25.0944L15.3755 27.4767L15.7364 27.1879H19.4904L19.9235 27.4767L19.6348 25.0944L19.0572 24.7334L16.1695 24.8056L15.6643 25.0944Z" fill="#393939"/>
<path fill-rule="evenodd" clip-rule="evenodd" d="M13.7148 8.99478L15.4475 13.0375L16.2416 24.8049H19.0571L19.9234 13.0375L21.5116 8.99478H13.7148Z" fill="#F89C35"/>
<path fill-rule="evenodd" clip-rule="evenodd" d="M6.13515 17.875L4.11377 23.7225L9.16721 23.4338H12.4158V20.9071L12.2714 15.7093L11.5495 16.2868L6.13515 17.875Z" fill="#F89D35"/>
<path fill-rule="evenodd" clip-rule="evenodd" d="M9.96094 18.5239L15.8807 18.6683L15.231 21.7003L12.4155 20.9784L9.96094 18.5239Z" fill="#D87C30"/>
<path fill-rule="evenodd" clip-rule="evenodd" d="M9.96094 18.5964L12.4155 20.9065V23.2167L9.96094 18.5964Z" fill="#EA8D3A"/>
<path fill-rule="evenodd" clip-rule="evenodd" d="M12.415 20.9787L15.3027 21.7006L16.2413 24.8049L15.5915 25.1658L12.415 23.2888V20.9787Z" fill="#F89D35"/>
<path fill-rule="evenodd" clip-rule="evenodd" d="M12.4159 23.2885L11.8384 27.7644L15.6646 25.0934L12.4159 23.2885Z" fill="#EB8F35"/>
<path fill-rule="evenodd" clip-rule="evenodd" d="M15.8811 18.6689L16.2421 24.8053L15.1592 21.6649L15.8811 18.6689Z" fill="#EA8E3A"/>
<path fill-rule="evenodd" clip-rule="evenodd" d="M9.09424 23.3608L12.4151 23.2885L11.8375 27.7644L9.09424 23.3608Z" fill="#D87C30"/>
<path fill-rule="evenodd" clip-rule="evenodd" d="M5.70199 29.7139L11.8382 27.7647L9.09495 23.361L4.11377 23.7219L5.70199 29.7139Z" fill="#EB8F35"/>
<path fill-rule="evenodd" clip-rule="evenodd" d="M15.4475 13.0368L12.3433 15.6357L9.96094 18.5234L15.8807 18.7401L15.4475 13.0368Z" fill="#E8821E"/>
<path fill-rule="evenodd" clip-rule="evenodd" d="M11.8384 27.7642L15.6646 25.0932L15.3759 27.4033V28.7028L12.7769 28.1974L11.8384 27.7642ZM23.3891 27.7642L19.6351 25.0932L19.9239 27.4033V28.7028L22.5228 28.1974L23.3891 27.7642Z" fill="#DFCEC3"/>
<path fill-rule="evenodd" clip-rule="evenodd" d="M14.2924 19.9676L15.0865 21.628L12.271 20.9061L14.2924 19.9676Z" fill="#393939"/>
<path fill-rule="evenodd" clip-rule="evenodd" d="M5.62988 5.60135L15.448 13.0371L13.7876 8.99431L5.62988 5.60135Z" fill="#E88F35"/>
<path fill-rule="evenodd" clip-rule="evenodd" d="M5.62953 5.60135L4.33008 9.57184L5.052 13.9034L4.54672 14.1921L5.26864 14.8419L4.6911 15.3472L5.48515 16.0691L4.97987 16.5023L6.13494 17.9461L11.5493 16.2858C14.1963 14.1681 15.4958 13.0852 15.4476 13.0371C15.3995 12.9889 12.1268 10.5104 5.62953 5.60135Z" fill="#8E5A30"/>
<path fill-rule="evenodd" clip-rule="evenodd" d="M29.0922 17.875L31.1135 23.7225L26.0601 23.4338H22.8115V20.9071L22.9559 15.7093L23.6778 16.2868L29.0922 17.875Z" fill="#F89D35"/>
<path fill-rule="evenodd" clip-rule="evenodd" d="M25.2659 18.5239L19.3462 18.6683L19.9959 21.7003L22.8114 20.9784L25.2659 18.5239Z" fill="#D87C30"/>
<path fill-rule="evenodd" clip-rule="evenodd" d="M25.2661 18.5964L22.8115 20.9065V23.2167L25.2661 18.5964Z" fill="#EA8D3A"/>
<path fill-rule="evenodd" clip-rule="evenodd" d="M22.8116 20.9787L19.9239 21.7006L18.9854 24.8049L19.6351 25.1658L22.8116 23.2888V20.9787Z" fill="#F89D35"/>
<path fill-rule="evenodd" clip-rule="evenodd" d="M22.8112 23.2885L23.3887 27.7644L19.6348 25.1655L22.8112 23.2885Z" fill="#EB8F35"/>
<path fill-rule="evenodd" clip-rule="evenodd" d="M19.3464 18.6689L18.9854 24.8053L20.0683 21.6649L19.3464 18.6689Z" fill="#EA8E3A"/>
<path fill-rule="evenodd" clip-rule="evenodd" d="M26.1324 23.3608L22.8115 23.2885L23.3891 27.7644L26.1324 23.3608Z" fill="#D87C30"/>
<path fill-rule="evenodd" clip-rule="evenodd" d="M29.5244 29.7139L23.3882 27.7647L26.1315 23.361L31.1127 23.7219L29.5244 29.7139Z" fill="#EB8F35"/>
<path fill-rule="evenodd" clip-rule="evenodd" d="M19.7793 13.0368L22.8835 15.6357L25.2659 18.5234L19.3462 18.7401L19.7793 13.0368Z" fill="#E8821E"/>
<path fill-rule="evenodd" clip-rule="evenodd" d="M20.9343 19.9676L20.1401 21.628L22.9557 20.9061L20.9343 19.9676Z" fill="#393939"/>
<path fill-rule="evenodd" clip-rule="evenodd" d="M29.5969 5.60135L19.7788 13.0371L21.4392 8.99431L29.5969 5.60135Z" fill="#E88F35"/>
<path fill-rule="evenodd" clip-rule="evenodd" d="M29.5967 5.60135L30.8962 9.57184L30.1743 13.9034L30.6796 14.1921L29.9576 14.8419L30.5352 15.3472L29.7411 16.0691L30.2464 16.5023L29.0913 17.9461L23.677 16.2858C21.03 14.1681 19.7305 13.0852 19.7786 13.0371C19.8268 12.9889 23.0995 10.5104 29.5967 5.60135Z" fill="#8E5A30"/>
</svg>
