<svg width="14" height="14" viewBox="0 0 14 14" fill="none" xmlns="http://www.w3.org/2000/svg">
<path fill-rule="evenodd" clip-rule="evenodd" d="M7.1665 1.33333C7.1665 0.873096 7.5396 0.5 7.99984 0.5H12.6665C13.1267 0.5 13.4998 0.873096 13.4998 1.33333V6C13.4998 6.46024 13.1267 6.83333 12.6665 6.83333C12.2063 6.83333 11.8332 6.46024 11.8332 6V3.34518L6.25576 8.92259C5.93032 9.24803 5.40269 9.24803 5.07725 8.92259C4.75181 8.59715 4.75181 8.06951 5.07725 7.74408L10.6547 2.16667H7.99984C7.5396 2.16667 7.1665 1.79357 7.1665 1.33333ZM0.638388 3.30522C0.940529 3.00308 1.35032 2.83333 1.77762 2.83333H5.6665C6.12674 2.83333 6.49984 3.20643 6.49984 3.66667C6.49984 4.1269 6.12674 4.5 5.6665 4.5H1.83317V12.1667H9.49984V8.33333C9.49984 7.8731 9.87293 7.5 10.3332 7.5C10.7934 7.5 11.1665 7.8731 11.1665 8.33333V12.2222C11.1665 12.6495 10.9968 13.0593 10.6946 13.3615C10.3925 13.6636 9.98268 13.8333 9.55539 13.8333H1.77762C1.35032 13.8333 0.940531 13.6636 0.638388 13.3615C0.336245 13.0593 0.166504 12.6495 0.166504 12.2222V4.44444C0.166504 4.01715 0.336246 3.60736 0.638388 3.30522Z" fill="white"/>
<path fill-rule="evenodd" clip-rule="evenodd" d="M7.1665 1.33333C7.1665 0.873096 7.5396 0.5 7.99984 0.5H12.6665C13.1267 0.5 13.4998 0.873096 13.4998 1.33333V6C13.4998 6.46024 13.1267 6.83333 12.6665 6.83333C12.2063 6.83333 11.8332 6.46024 11.8332 6V3.34518L6.25576 8.92259C5.93032 9.24803 5.40269 9.24803 5.07725 8.92259C4.75181 8.59715 4.75181 8.06951 5.07725 7.74408L10.6547 2.16667H7.99984C7.5396 2.16667 7.1665 1.79357 7.1665 1.33333ZM0.638388 3.30522C0.940529 3.00308 1.35032 2.83333 1.77762 2.83333H5.6665C6.12674 2.83333 6.49984 3.20643 6.49984 3.66667C6.49984 4.1269 6.12674 4.5 5.6665 4.5H1.83317V12.1667H9.49984V8.33333C9.49984 7.8731 9.87293 7.5 10.3332 7.5C10.7934 7.5 11.1665 7.8731 11.1665 8.33333V12.2222C11.1665 12.6495 10.9968 13.0593 10.6946 13.3615C10.3925 13.6636 9.98268 13.8333 9.55539 13.8333H1.77762C1.35032 13.8333 0.940531 13.6636 0.638388 13.3615C0.336245 13.0593 0.166504 12.6495 0.166504 12.2222V4.44444C0.166504 4.01715 0.336246 3.60736 0.638388 3.30522Z" fill="#141769" fill-opacity="0.3"/>
</svg>
