<svg width="11" height="12" viewBox="0 0 11 12" fill="none" xmlns="http://www.w3.org/2000/svg">
<path d="M5.50008 11.3334C4.01119 11.3334 2.75008 10.8167 1.71675 9.78336C0.683415 8.75002 0.166748 7.48891 0.166748 6.00002C0.166748 4.51113 0.683415 3.25002 1.71675 2.21669C2.75008 1.18336 4.01119 0.666689 5.50008 0.666689C6.26675 0.666689 7.00008 0.824911 7.70008 1.14136C8.40008 1.4578 9.00008 1.91069 9.50008 2.50002V1.33336C9.50008 1.14447 9.56408 0.986023 9.69208 0.858023C9.82008 0.730023 9.9783 0.666245 10.1667 0.666689C10.3556 0.666689 10.5141 0.730689 10.6421 0.858689C10.7701 0.986689 10.8339 1.14491 10.8334 1.33336V4.66669C10.8334 4.85558 10.7694 5.01402 10.6414 5.14202C10.5134 5.27002 10.3552 5.3338 10.1667 5.33336H6.83341C6.64453 5.33336 6.48608 5.26936 6.35808 5.14136C6.23008 5.01336 6.1663 4.85513 6.16675 4.66669C6.16675 4.4778 6.23075 4.31936 6.35875 4.19136C6.48675 4.06336 6.64497 3.99958 6.83341 4.00002H8.96675C8.61119 3.3778 8.12497 2.88891 7.50808 2.53336C6.89119 2.1778 6.22186 2.00002 5.50008 2.00002C4.38897 2.00002 3.44453 2.38891 2.66675 3.16669C1.88897 3.94447 1.50008 4.88891 1.50008 6.00002C1.50008 7.11113 1.88897 8.05558 2.66675 8.83336C3.44453 9.61113 4.38897 10 5.50008 10C6.25564 10 6.94741 9.80824 7.57541 9.42469C8.20341 9.04113 8.68941 8.52736 9.03341 7.88336C9.1223 7.7278 9.24741 7.61958 9.40875 7.55869C9.57008 7.4978 9.73386 7.49491 9.90008 7.55002C10.0779 7.60558 10.2056 7.72225 10.2834 7.90002C10.3612 8.0778 10.3556 8.24447 10.2667 8.40002C9.81119 9.28891 9.16119 10 8.31675 10.5334C7.4723 11.0667 6.53341 11.3334 5.50008 11.3334Z" fill="white"/>
<path d="M5.50008 11.3334C4.01119 11.3334 2.75008 10.8167 1.71675 9.78336C0.683415 8.75002 0.166748 7.48891 0.166748 6.00002C0.166748 4.51113 0.683415 3.25002 1.71675 2.21669C2.75008 1.18336 4.01119 0.666689 5.50008 0.666689C6.26675 0.666689 7.00008 0.824911 7.70008 1.14136C8.40008 1.4578 9.00008 1.91069 9.50008 2.50002V1.33336C9.50008 1.14447 9.56408 0.986023 9.69208 0.858023C9.82008 0.730023 9.9783 0.666245 10.1667 0.666689C10.3556 0.666689 10.5141 0.730689 10.6421 0.858689C10.7701 0.986689 10.8339 1.14491 10.8334 1.33336V4.66669C10.8334 4.85558 10.7694 5.01402 10.6414 5.14202C10.5134 5.27002 10.3552 5.3338 10.1667 5.33336H6.83341C6.64453 5.33336 6.48608 5.26936 6.35808 5.14136C6.23008 5.01336 6.1663 4.85513 6.16675 4.66669C6.16675 4.4778 6.23075 4.31936 6.35875 4.19136C6.48675 4.06336 6.64497 3.99958 6.83341 4.00002H8.96675C8.61119 3.3778 8.12497 2.88891 7.50808 2.53336C6.89119 2.1778 6.22186 2.00002 5.50008 2.00002C4.38897 2.00002 3.44453 2.38891 2.66675 3.16669C1.88897 3.94447 1.50008 4.88891 1.50008 6.00002C1.50008 7.11113 1.88897 8.05558 2.66675 8.83336C3.44453 9.61113 4.38897 10 5.50008 10C6.25564 10 6.94741 9.80824 7.57541 9.42469C8.20341 9.04113 8.68941 8.52736 9.03341 7.88336C9.1223 7.7278 9.24741 7.61958 9.40875 7.55869C9.57008 7.4978 9.73386 7.49491 9.90008 7.55002C10.0779 7.60558 10.2056 7.72225 10.2834 7.90002C10.3612 8.0778 10.3556 8.24447 10.2667 8.40002C9.81119 9.28891 9.16119 10 8.31675 10.5334C7.4723 11.0667 6.53341 11.3334 5.50008 11.3334Z" fill="#141769" fill-opacity="0.5"/>
</svg>
